<svg width="25" height="24" viewBox="0 0 25 24" fill="none" xmlns="http://www.w3.org/2000/svg">
<path d="M21.75 10.8328V19.5C21.75 19.8978 21.592 20.2793 21.3107 20.5607C21.0294 20.842 20.6478 21 20.25 21H16.5C16.1022 21 15.7206 20.842 15.4393 20.5607C15.158 20.2793 15 19.8978 15 19.5V15.75C15 15.5511 14.921 15.3603 14.7803 15.2197C14.6397 15.079 14.4489 15 14.25 15H11.25C11.0511 15 10.8603 15.079 10.7197 15.2197C10.579 15.3603 10.5 15.5511 10.5 15.75V19.5C10.5 19.8978 10.342 20.2793 10.0607 20.5607C9.77936 20.842 9.39782 21 9 21H5.25C4.85218 21 4.47064 20.842 4.18934 20.5607C3.90804 20.2793 3.75 19.8978 3.75 19.5V10.8328C3.74997 10.6252 3.79303 10.4199 3.87646 10.2298C3.95989 10.0397 4.08187 9.86895 4.23469 9.72843L11.7347 2.65218L11.745 2.64187C12.0211 2.39074 12.381 2.25159 12.7542 2.25159C13.1275 2.25159 13.4873 2.39074 13.7634 2.64187C13.7666 2.64554 13.7701 2.64898 13.7738 2.65218L21.2738 9.72843C21.425 9.86969 21.5454 10.0407 21.6274 10.2308C21.7094 10.4209 21.7511 10.6258 21.75 10.8328Z" fill="#9CA3AF"/>
</svg>
